HIERARCHY
ROOT Hips
{
  OFFSET 15.346 25.180 -267.751
  CHANNELS 6 Xposition Yposition Zposition Zrotation Xrotation Yrotation
  JOINT LeftUpLeg
  {
    OFFSET 7.948 -7.662 1.827
    CHANNELS 6 Xposition Yposition Zposition Zrotation Xrotation Yrotation
    JOINT LeftLeg
    {
      OFFSET 0.000 -47.708 0.000
      CHANNELS 6 Xposition Yposition Zposition Zrotation Xrotation Yrotation
      JOINT LeftFoot
      {
        OFFSET -0.000 -40.512 -0.000
        CHANNELS 6 Xposition Yposition Zposition Zrotation Xrotation Yrotation
        End Site
        {
          OFFSET 0.000 -8.629 4.982
        }
      }
    }
  }
  JOINT RightUpLeg
  {
    OFFSET -7.771 -7.382 1.878
    CHANNELS 6 Xposition Yposition Zposition Zrotation Xrotation Yrotation
    JOINT RightLeg
    {
      OFFSET -0.000 -46.007 0.000
      CHANNELS 6 Xposition Yposition Zposition Zrotation Xrotation Yrotation
      JOINT RightFoot
      {
        OFFSET 0.000 -43.764 -0.000
        CHANNELS 6 Xposition Yposition Zposition Zrotation Xrotation Yrotation
        End Site
        {
          OFFSET 0.000 -8.059 4.653
        }
      }
    }
  }
  JOINT Spine
  {
    OFFSET 0.000 5.861 -5.861
    CHANNELS 6 Xposition Yposition Zposition Zrotation Xrotation Yrotation
    JOINT LeftShoulder
    {
      OFFSET -0.000 38.433 0.000
      CHANNELS 6 Xposition Yposition Zposition Zrotation Xrotation Yrotation
      JOINT LeftArm
      {
        OFFSET 22.645 0.000 -0.000
        CHANNELS 6 Xposition Yposition Zposition Zrotation Xrotation Yrotation
        JOINT LeftForeArm
        {
          OFFSET 25.107 0.000 0.000
          CHANNELS 6 Xposition Yposition Zposition Zrotation Xrotation Yrotation
          JOINT LeftHand
          {
            OFFSET 27.170 0.000 -0.000
            CHANNELS 6 Xposition Yposition Zposition Zrotation Xrotation Yrotation
            JOINT LeftHandThumb1
            {
            OFFSET 4.970 -0.620 3.390
            CHANNELS 6 Xposition Yposition Zposition Zrotation Xrotation Yrotation
              JOINT LeftHandThumb2
              {
              OFFSET 2.150 -0.000 0.000
              CHANNELS 6 Xposition Yposition Zposition Zrotation Xrotation Yrotation
                JOINT LeftHandThumb3
                {
                OFFSET 2.200 -0.000 0.000
                CHANNELS 6 Xposition Yposition Zposition Zrotation Xrotation Yrotation
                  JOINT LeftHandThumb4
                  {
                  OFFSET 1.700 -0.000 0.000
                  CHANNELS 6 Xposition Yposition Zposition Zrotation Xrotation Yrotation
                  }
                }
              }
            }
            JOINT LeftHandIndex1
            {
            OFFSET 8.730 0.680 2.070
            CHANNELS 6 Xposition Yposition Zposition Zrotation Xrotation Yrotation
              JOINT LeftHandIndex2
              {
              OFFSET 2.670 -0.000 0.000
              CHANNELS 6 Xposition Yposition Zposition Zrotation Xrotation Yrotation
                JOINT LeftHandIndex3
                {
                OFFSET 2.130 -0.000 0.000
                CHANNELS 6 Xposition Yposition Zposition Zrotation Xrotation Yrotation
                  JOINT LeftHandIndex4
                  {
                  OFFSET 1.800 -0.000 0.000
                  CHANNELS 6 Xposition Yposition Zposition Zrotation Xrotation Yrotation
                  }
                }
              }
            }
            JOINT LeftHandMiddle1
            {
            OFFSET 9.220 0.670 0.550
            CHANNELS 6 Xposition Yposition Zposition Zrotation Xrotation Yrotation
              JOINT LeftHandMiddle2
              {
              OFFSET 2.660 -0.000 0.000
              CHANNELS 6 Xposition Yposition Zposition Zrotation Xrotation Yrotation
                JOINT LeftHandMiddle3
                {
                OFFSET 2.280 -0.000 0.000
                CHANNELS 6 Xposition Yposition Zposition Zrotation Xrotation Yrotation
                  JOINT LeftHandMiddle4
                  {
                  OFFSET 1.500 -0.000 0.000
                  CHANNELS 6 Xposition Yposition Zposition Zrotation Xrotation Yrotation
                  }
                }
              }
            }
            JOINT LeftHandRing1
            {
            OFFSET 9.250 0.670 -1.130
            CHANNELS 6 Xposition Yposition Zposition Zrotation Xrotation Yrotation
              JOINT LeftHandRing2
              {
              OFFSET 2.470 -0.000 0.000
              CHANNELS 6 Xposition Yposition Zposition Zrotation Xrotation Yrotation
                JOINT LeftHandRing3
                {
                OFFSET 2.210 -0.000 0.000
                CHANNELS 6 Xposition Yposition Zposition Zrotation Xrotation Yrotation
                  JOINT LeftHandRing4
                  {
                  OFFSET 1.800 -0.000 0.000
                  CHANNELS 6 Xposition Yposition Zposition Zrotation Xrotation Yrotation
                  }
                }
              }
            }
            JOINT LeftHandPinky1
            {
            OFFSET 9.350 0.660 -2.720
            CHANNELS 6 Xposition Yposition Zposition Zrotation Xrotation Yrotation
              JOINT LeftHandPinky2
              {
              OFFSET 1.630 -0.000 0.000
              CHANNELS 6 Xposition Yposition Zposition Zrotation Xrotation Yrotation
                JOINT LeftHandPinky3
                {
                OFFSET 1.710 -0.000 0.000
                CHANNELS 6 Xposition Yposition Zposition Zrotation Xrotation Yrotation
                  JOINT LeftHandPinky4
                  {
                  OFFSET 1.800 -0.000 0.000
                  CHANNELS 6 Xposition Yposition Zposition Zrotation Xrotation Yrotation
                  }
                }
              }
            }
          }
        }
      }
    }
    JOINT RightShoulder
    {
      OFFSET -0.000 38.433 0.000
      CHANNELS 6 Xposition Yposition Zposition Zrotation Xrotation Yrotation
      JOINT RightArm
      {
        OFFSET -22.431 0.000 -0.000
        CHANNELS 6 Xposition Yposition Zposition Zrotation Xrotation Yrotation
        JOINT RightForeArm
        {
          OFFSET -26.397 0.000 0.000
          CHANNELS 6 Xposition Yposition Zposition Zrotation Xrotation Yrotation
          JOINT RightHand
          {
            OFFSET -24.803 0.000 -0.000
            CHANNELS 6 Xposition Yposition Zposition Zrotation Xrotation Yrotation
            JOINT RightHandThumb1
            {
            OFFSET -4.970 -0.620 3.390
            CHANNELS 6 Xposition Yposition Zposition Zrotation Xrotation Yrotation
              JOINT RightHandThumb2
              {
              OFFSET -2.150 0.000 0.000
              CHANNELS 6 Xposition Yposition Zposition Zrotation Xrotation Yrotation
                JOINT RightHandThumb3
                {
                OFFSET -2.200 0.000 0.000
                CHANNELS 6 Xposition Yposition Zposition Zrotation Xrotation Yrotation
                  JOINT RightHandThumb4
                  {
                  OFFSET -1.700 0.000 0.000
                  CHANNELS 6 Xposition Yposition Zposition Zrotation Xrotation Yrotation
                  }
                }
              }
            }
            JOINT RightHandIndex1
            {
            OFFSET -8.730 0.680 2.070
            CHANNELS 6 Xposition Yposition Zposition Zrotation Xrotation Yrotation
              JOINT RightHandIndex2
              {
              OFFSET -2.670 0.000 0.000
              CHANNELS 6 Xposition Yposition Zposition Zrotation Xrotation Yrotation
                JOINT RightHandIndex3
                {
                OFFSET -2.130 0.000 0.000
                CHANNELS 6 Xposition Yposition Zposition Zrotation Xrotation Yrotation
                  JOINT RightHandIndex4
                  {
                  OFFSET -1.800 0.000 0.000
                  CHANNELS 6 Xposition Yposition Zposition Zrotation Xrotation Yrotation
                  }
                }
              }
            }
            JOINT RightHandMiddle1
            {
            OFFSET -9.220 0.670 0.550
            CHANNELS 6 Xposition Yposition Zposition Zrotation Xrotation Yrotation
              JOINT RightHandMiddle2
              {
              OFFSET -2.660 0.000 0.000
              CHANNELS 6 Xposition Yposition Zposition Zrotation Xrotation Yrotation
                JOINT RightHandMiddle3
                {
                OFFSET -2.280 0.000 0.000
                CHANNELS 6 Xposition Yposition Zposition Zrotation Xrotation Yrotation
                  JOINT RightHandMiddle4
                  {
                  OFFSET -1.500 0.000 0.000
                  CHANNELS 6 Xposition Yposition Zposition Zrotation Xrotation Yrotation
                  }
                }
              }
            }
            JOINT RightHandRing1
            {
            OFFSET -9.250 0.670 -1.130
            CHANNELS 6 Xposition Yposition Zposition Zrotation Xrotation Yrotation
              JOINT RightHandRing2
              {
              OFFSET -2.470 0.000 0.000
              CHANNELS 6 Xposition Yposition Zposition Zrotation Xrotation Yrotation
                JOINT RightHandRing3
                {
                OFFSET -2.210 0.000 0.000
                CHANNELS 6 Xposition Yposition Zposition Zrotation Xrotation Yrotation
                  JOINT RightHandRing4
                  {
                  OFFSET -1.800 0.000 0.000
                  CHANNELS 6 Xposition Yposition Zposition Zrotation Xrotation Yrotation
                  }
                }
              }
            }
            JOINT RightHandPinky1
            {
            OFFSET -9.350 0.660 -2.720
            CHANNELS 6 Xposition Yposition Zposition Zrotation Xrotation Yrotation
              JOINT RightHandPinky2
              {
              OFFSET -1.630 0.000 0.000
              CHANNELS 6 Xposition Yposition Zposition Zrotation Xrotation Yrotation
                JOINT RightHandPinky3
                {
                OFFSET -1.710 0.000 0.000
                CHANNELS 6 Xposition Yposition Zposition Zrotation Xrotation Yrotation
                  JOINT RightHandPinky4
                  {
                  OFFSET -1.800 0.000 0.000
                  CHANNELS 6 Xposition Yposition Zposition Zrotation Xrotation Yrotation
                  }
                }
              }
            }
          }
        }
      }
    }
    JOINT Neck
    {
      OFFSET -0.000 38.433 0.000
      CHANNELS 6 Xposition Yposition Zposition Zrotation Xrotation Yrotation
      JOINT Head
      {
        OFFSET -0.000 16.511 -0.000
        CHANNELS 6 Xposition Yposition Zposition Zrotation Xrotation Yrotation
        End Site
        {
          OFFSET -0.000 0.066 -0.000
        }
      }
    }
  }
}
MOTION
Frames:	6
Frame Time:	0.0333333
15.1777 27.4035 -271.529 -0.93258 0.193182 13.9934 8.01886 -7.68396 1.83094 13.2707 -44.8038 7.86385 1.19209e-05 -45.0267 -1.19209e-05 -5.4257 -1.11829 -0.106211 -1.19209e-05 -39.3055 5.96046e-05 3.73626 9.04124 1.36313 -8.26806 -7.92243 1.44475 -2.71466 -0.875998 -2.66105 -1.19209e-05 -49.0984 -2.38419e-05 8.3339 14.5383 2.64605e-06 -5.96046e-06 -46.0448 4.76837e-05 -2.1789 -8.3884 -1.30078 1.19209e-05 5.88738 -5.88739 -0.679033 -2.97156 0.100618 -1.78814e-05 38.4327 -4.76837e-05 -39.075 1.19528e-05 -1.07599 23.7745 -1.19209e-05 2.38419e-05 -34.4979 5.67391 7.96285 24.9547 0 4.76837e-05 1.27498e-05 -2.56132e-06 -42.7671 23.9206 -1.19209e-05 0 -7.0324 0.0471748 -9.56126 0.0062 0.0497 0.0339 0 0 0 0 0.0215 0 0 0 0 0 0.022 0 0 0 0 0 0.017 0 0 0 0 -0.0068 0.0873 0.0207 0 0 0 0 0.0267 0 0 0 0 0 0.0213 0 0 0 0 0 0.018 0 0 0 0 -0.0067 0.0922 0.0055 0 0 0 0 0.0266 0 0 0 0 0 0.0228 0 0 0 0 0 0.015 0 0 0 0 -0.0067 0.0925 -0.0113 0 0 0 0 0.0247 0 0 0 0 0 0.0221 0 0 0 0 0 0.018 0 0 0 0 -0.0066 0.0935 -0.0272 0 0 0 0 0.0163 0 0 0 0 0 0.0171 0 0 0 0 0 0.018 0 0 0 0 -1.78814e-05 38.4327 -4.76837e-05 42.0361 -2.98821e-06 1.10497 -23.1509 -3.72529e-06 -4.76837e-05 26.3271 19.4558 -5.70851 -26.4339 0 0 -7.78172e-06 1.02453e-05 44.8452 -26.8766 1.19209e-05 0 3.20149 -0.0216401 -2.75965 -0.0062 0.0497 0.0339 0 0 0 0 0.0215 0 0 0 0 0 0.022 0 0 0 0 0 0.017 0 0 0 0 0.0068 0.0873 0.0207 0 0 0 0 0.0267 0 0 0 0 0 0.0213 0 0 0 0 0 0.018 0 0 0 0 0.0067 0.0922 0.0055 0 0 0 0 0.0266 0 0 0 0 0 0.0228 0 0 0 0 0 0.015 0 0 0 0 0.0067 0.0925 -0.0113 0 0 0 0 0.0247 0 0 0 0 0 0.0221 0 0 0 0 0 0.018 0 0 0 0 0.0066 0.0935 -0.0272 0 0 0 0 0.0163 0 0 0 0 0 0.0171 0 0 0 0 0 0.018 0 0 0 0 -1.78814e-05 38.4327 -4.76837e-05 -13.6992 22.4618 5.32073 5.96046e-06 16.4235 -2.38419e-05 1.10991e-05 -9.39151e-06 0 
15.5054 27.1698 -271.824 -0.606342 0.358049 13.4651 7.99714 -7.73587 1.85518 12.6889 -40.8965 6.86163 0 -46.736 4.76837e-05 -4.75295 3.15074 0.261839 1.19209e-05 -38.011 -3.57628e-05 0.805493 7.8848 0.426661 -8.19306 -7.89581 1.43015 -3.51406 -1.23274 -2.68297 5.96046e-06 -48.7117 0 8.11718 14.9399 1.76729e-06 5.96046e-06 -46.2623 -2.38419e-05 -1.59533 -8.62138 -0.956487 -1.19209e-05 5.9011 -5.90115 -0.64263 -3.00268 -0.0410349 0 38.4327 7.15256e-05 -39.0803 1.36604e-05 -0.870913 23.7008 -1.19209e-05 -4.76837e-05 -34.945 8.29531 7.3858 24.9479 0 -2.38419e-05 2.13418e-06 2.13443e-06 -44.9965 24.5486 -1.78814e-05 4.76837e-05 -6.63992 0.0454058 -9.85957 0.0062 0.0497 0.0339 0 0 0 0 0.0215 0 0 0 0 0 0.022 0 0 0 0 0 0.017 0 0 0 0 -0.0068 0.0873 0.0207 0 0 0 0 0.0267 0 0 0 0 0 0.0213 0 0 0 0 0 0.018 0 0 0 0 -0.0067 0.0922 0.0055 0 0 0 0 0.0266 0 0 0 0 0 0.0228 0 0 0 0 0 0.015 0 0 0 0 -0.0067 0.0925 -0.0113 0 0 0 0 0.0247 0 0 0 0 0 0.0221 0 0 0 0 0 0.018 0 0 0 0 -0.0066 0.0935 -0.0272 0 0 0 0 0.0163 0 0 0 0 0 0.0171 0 0 0 0 0 0.018 0 0 0 0 0 38.4327 7.15256e-05 41.7378 -4.26887e-06 0.896083 -23.0347 5.21541e-06 0 27.1343 18.8993 -5.61305 -26.3836 1.19209e-05 4.76837e-05 -1.20456e-05 1.19528e-05 45.2215 -26.2516 -1.19209e-05 0 2.3982 -0.0191961 -3.19494 -0.0062 0.0497 0.0339 0 0 0 0 0.0215 0 0 0 0 0 0.022 0 0 0 0 0 0.017 0 0 0 0 0.0068 0.0873 0.0207 0 0 0 0 0.0267 0 0 0 0 0 0.0213 0 0 0 0 0 0.018 0 0 0 0 0.0067 0.0922 0.0055 0 0 0 0 0.0266 0 0 0 0 0 0.0228 0 0 0 0 0 0.015 0 0 0 0 0.0067 0.0925 -0.0113 0 0 0 0 0.0247 0 0 0 0 0 0.0221 0 0 0 0 0 0.018 0 0 0 0 0.0066 0.0935 -0.0272 0 0 0 0 0.0163 0 0 0 0 0 0.0171 0 0 0 0 0 0.018 0 0 0 0 0 38.4327 7.15256e-05 -13.7178 21.7801 5.17532 -1.78814e-05 16.4679 -2.38419e-05 5.97642e-06 -1.53679e-05 1.70755e-06 
15.8754 27.0113 -272.085 -0.298005 0.584211 11.8629 7.99639 -7.75756 1.79653 12.559 -36.1924 6.47026 1.19209e-05 -48.1007 4.76837e-05 -3.79286 9.35534 0.617432 -2.98023e-05 -36.9978 -4.76837e-05 -3.48283 7.0264 -1.12253 -8.08408 -7.8495 1.51227 -4.22104 -1.30312 -1.95269 0 -48.4631 2.38419e-05 7.74909 14.4521 8.81673e-07 1.19209e-05 -46.3139 -4.76837e-05 -0.794262 -8.80036 -0.46012 -5.96046e-06 5.91482 -5.91483 -0.511705 -3.15929 -0.0539107 -5.96046e-06 38.4327 -2.38419e-05 -39.0094 9.39151e-06 -1.0301 23.5077 0 2.38419e-05 -35.7392 10.6282 7.35 25.0209 -5.96046e-06 -2.38419e-05 6.86258e-06 1.12058e-06 -46.1239 24.6745 0 -2.38419e-05 -6.37298 0.0517907 -10.575 0.0062 0.0497 0.0339 0 0 0 0 0.0215 0 0 0 0 0 0.022 0 0 0 0 0 0.017 0 0 0 0 -0.0068 0.0873 0.0207 0 0 0 0 0.0267 0 0 0 0 0 0.0213 0 0 0 0 0 0.018 0 0 0 0 -0.0067 0.0922 0.0055 0 0 0 0 0.0266 0 0 0 0 0 0.0228 0 0 0 0 0 0.015 0 0 0 0 -0.0067 0.0925 -0.0113 0 0 0 0 0.0247 0 0 0 0 0 0.0221 0 0 0 0 0 0.018 0 0 0 0 -0.0066 0.0935 -0.0272 0 0 0 0 0.0163 0 0 0 0 0 0.0171 0 0 0 0 0 0.018 0 0 0 0 -5.96046e-06 38.4327 -2.38419e-05 41.285 -2.13443e-06 1.05843 -22.8786 8.9407e-06 2.38419e-05 28.2905 17.7463 -5.23001 -26.2795 1.19209e-05 -2.38419e-05 -6.92322e-06 6.83019e-06 45.3875 -26.2338 -3.57628e-05 -2.38419e-05 1.72943 -0.00990493 -3.25917 -0.0062 0.0497 0.0339 0 0 0 0 0.0215 0 0 0 0 0 0.022 0 0 0 0 0 0.017 0 0 0 0 0.0068 0.0873 0.0207 0 0 0 0 0.0267 0 0 0 0 0 0.0213 0 0 0 0 0 0.018 0 0 0 0 0.0067 0.0922 0.0055 0 0 0 0 0.0266 0 0 0 0 0 0.0228 0 0 0 0 0 0.015 0 0 0 0 0.0067 0.0925 -0.0113 0 0 0 0 0.0247 0 0 0 0 0 0.0221 0 0 0 0 0 0.018 0 0 0 0 0.0066 0.0935 -0.0272 0 0 0 0 0.0163 0 0 0 0 0 0.0171 0 0 0 0 0 0.018 0 0 0 0 -5.96046e-06 38.4327 -2.38419e-05 -13.5558 20.8541 4.9058 0 16.5081 -2.38419e-05 6.4033e-06 -1.19528e-05 0 
16.2602 27.0027 -272.309 -0.0560762 0.932305 9.27857 8.00247 -7.73767 1.70121 12.8439 -31.3813 4.18502 0 -48.4678 4.76837e-05 -3.5795 16.9482 -8.92538e-07 1.78814e-05 -37.5831 -9.53674e-05 -7.59472 6.07685 -2.85389 -7.95389 -7.80424 1.63608 -4.6878 -0.973904 -0.80857 -5.96046e-06 -48.6158 -2.38419e-05 7.07688 12.7672 8.75418e-07 1.49012e-05 -45.8436 -7.15256e-05 0.190873 -8.81164 0.16117 1.78814e-05 5.92225 -5.92227 -0.280746 -3.38579 -0.140714 -1.19209e-05 38.4327 7.15256e-05 -38.9277 1.45142e-05 -0.755314 23.2684 1.19209e-05 -2.38419e-05 -36.2119 13.346 6.19885 24.9367 5.96046e-06 7.15256e-05 8.32143e-06 3.84198e-06 -44.772 24.4888 -5.96046e-06 -4.76837e-05 -6.32284 0.0620651 -11.6226 0.0062 0.0497 0.0339 0 0 0 0 0.0215 0 0 0 0 0 0.022 0 0 0 0 0 0.017 0 0 0 0 -0.0068 0.0873 0.0207 0 0 0 0 0.0267 0 0 0 0 0 0.0213 0 0 0 0 0 0.018 0 0 0 0 -0.0067 0.0922 0.0055 0 0 0 0 0.0266 0 0 0 0 0 0.0228 0 0 0 0 0 0.015 0 0 0 0 -0.0067 0.0925 -0.0113 0 0 0 0 0.0247 0 0 0 0 0 0.0221 0 0 0 0 0 0.018 0 0 0 0 -0.0066 0.0935 -0.0272 0 0 0 0 0.0163 0 0 0 0 0 0.0171 0 0 0 0 0 0.018 0 0 0 0 -1.19209e-05 38.4327 7.15256e-05 40.6961 -5.97641e-06 0.779193 -22.5549 7.45058e-06 -7.15256e-05 29.7117 17.3814 -3.80342 -26.1125 1.19209e-05 2.38419e-05 1.1323e-06 8.53774e-06 44.9173 -25.5573 0 1.19209e-05 1.51342 -0.00604637 -2.72236 -0.0062 0.0497 0.0339 0 0 0 0 0.0215 0 0 0 0 0 0.022 0 0 0 0 0 0.017 0 0 0 0 0.0068 0.0873 0.0207 0 0 0 0 0.0267 0 0 0 0 0 0.0213 0 0 0 0 0 0.018 0 0 0 0 0.0067 0.0922 0.0055 0 0 0 0 0.0266 0 0 0 0 0 0.0228 0 0 0 0 0 0.015 0 0 0 0 0.0067 0.0925 -0.0113 0 0 0 0 0.0247 0 0 0 0 0 0.0221 0 0 0 0 0 0.018 0 0 0 0 0.0066 0.0935 -0.0272 0 0 0 0 0.0163 0 0 0 0 0 0.0171 0 0 0 0 0 0.018 0 0 0 0 -1.19209e-05 38.4327 7.15256e-05 -12.8926 19.1031 4.28401 -1.19209e-05 16.6003 -7.15256e-05 6.61674e-06 -1.02453e-05 -8.53774e-07 
16.597 27.0791 -272.471 0.137854 1.34209 6.56522 7.98658 -7.71872 1.58629 13.0404 -27.52 3.20976 -1.19209e-05 -48.4448 2.38419e-05 -3.54873 23.623 1.39779e-06 3.57628e-05 -38.8985 -2.38419e-05 -10.2278 4.70392 -4.27609 -7.83762 -7.75225 1.75321 -5.04752 -1.0782 0.199219 -8.9407e-06 -48.7697 0 6.62911 12.0253 8.72929e-07 5.96046e-06 -45.3125 -4.76837e-05 0.883442 -8.96282 0.616411 2.98023e-06 5.93027 -5.93023 -0.252481 -3.60642 0.044072 0 38.4327 -2.38419e-05 -38.7544 1.32335e-05 -0.614254 22.8918 -5.96046e-06 2.38419e-05 -36.6212 16.6644 5.77074 24.9174 3.35276e-06 -2.38419e-05 3.37893e-06 -8.53773e-07 -45.1526 24.8059 -9.12696e-06 2.38419e-05 -6.4496 0.0655302 -12.2408 0.0062 0.0497 0.0339 0 0 0 0 0.0215 0 0 0 0 0 0.022 0 0 0 0 0 0.017 0 0 0 0 -0.0068 0.0873 0.0207 0 0 0 0 0.0267 0 0 0 0 0 0.0213 0 0 0 0 0 0.018 0 0 0 0 -0.0067 0.0922 0.0055 0 0 0 0 0.0266 0 0 0 0 0 0.0228 0 0 0 0 0 0.015 0 0 0 0 -0.0067 0.0925 -0.0113 0 0 0 0 0.0247 0 0 0 0 0 0.0221 0 0 0 0 0 0.018 0 0 0 0 -0.0066 0.0935 -0.0272 0 0 0 0 0.0163 0 0 0 0 0 0.0171 0 0 0 0 0 0.018 0 0 0 0 0 38.4327 -2.38419e-05 40.2977 -4.9092e-06 0.626094 -22.4586 1.19209e-05 0 32.0198 13.8682 -3.58163 -25.5829 -1.19209e-05 7.15256e-05 2.43357e-06 0 45.4393 -25.6472 0 -8.34465e-05 1.97823 -0.0101877 -2.14639 -0.0062 0.0497 0.0339 0 0 0 0 0.0215 0 0 0 0 0 0.022 0 0 0 0 0 0.017 0 0 0 0 0.0068 0.0873 0.0207 0 0 0 0 0.0267 0 0 0 0 0 0.0213 0 0 0 0 0 0.018 0 0 0 0 0.0067 0.0922 0.0055 0 0 0 0 0.0266 0 0 0 0 0 0.0228 0 0 0 0 0 0.015 0 0 0 0 0.0067 0.0925 -0.0113 0 0 0 0 0.0247 0 0 0 0 0 0.0221 0 0 0 0 0 0.018 0 0 0 0 0.0066 0.0935 -0.0272 0 0 0 0 0.0163 0 0 0 0 0 0.0171 0 0 0 0 0 0.018 0 0 0 0 0 38.4327 -2.38419e-05 -11.6182 17.5969 3.55677 -2.98023e-06 16.5405 -2.38419e-05 9.17807e-06 -7.68396e-06 -1.70755e-06 
17.0366 27.1564 -272.694 0.268162 1.89612 2.26481 7.96026 -7.67622 1.34993 13.1962 -22.1066 3.33095 -1.78814e-05 -48.5224 0 -4.38474 26.5278 4.77119e-07 5.96046e-06 -40.794 0 -12.3455 4.1324 -5.50712 -7.65006 -7.70272 1.89154 -5.25138 -1.7175 1.65097 8.9407e-06 -48.9841 -4.76837e-05 6.2308 12.421 1.74847e-06 -2.98023e-06 -44.6292 0 1.53435 -9.2476 1.07141 -2.98023e-06 5.93537 -5.93538 -0.16045 -3.90214 0.149467 5.96046e-06 38.4327 2.38419e-05 -38.8198 1.21663e-05 -0.281092 22.4695 -1.19209e-05 0 -36.097 21.6205 5.19493 24.7754 -2.98023e-06 0 9.75527e-06 0 -45.5607 25.3025 1.49012e-05 0 -6.10496 0.0544805 -12.8479 0.0062 0.0497 0.0339 0 0 0 0 0.0215 0 0 0 0 0 0.022 0 0 0 0 0 0.017 0 0 0 0 -0.0068 0.0873 0.0207 0 0 0 0 0.0267 0 0 0 0 0 0.0213 0 0 0 0 0 0.018 0 0 0 0 -0.0067 0.0922 0.0055 0 0 0 0 0.0266 0 0 0 0 0 0.0228 0 0 0 0 0 0.015 0 0 0 0 -0.0067 0.0925 -0.0113 0 0 0 0 0.0247 0 0 0 0 0 0.0221 0 0 0 0 0 0.018 0 0 0 0 -0.0066 0.0935 -0.0272 0 0 0 0 0.0163 0 0 0 0 0 0.0171 0 0 0 0 0 0.018 0 0 0 0 5.96046e-06 38.4327 2.38419e-05 40.1752 -5.08429e-06 0.285087 -22.1541 -2.98023e-06 0 33.7062 12.6515 -2.44558 -25.2371 5.96046e-06 2.38419e-05 7.90558e-06 4.26887e-06 46.5129 -25.4623 5.96046e-06 1.19209e-05 2.3577 -0.00734501 -1.50604 -0.0062 0.0497 0.0339 0 0 0 0 0.0215 0 0 0 0 0 0.022 0 0 0 0 0 0.017 0 0 0 0 0.0068 0.0873 0.0207 0 0 0 0 0.0267 0 0 0 0 0 0.0213 0 0 0 0 0 0.018 0 0 0 0 0.0067 0.0922 0.0055 0 0 0 0 0.0266 0 0 0 0 0 0.0228 0 0 0 0 0 0.015 0 0 0 0 0.0067 0.0925 -0.0113 0 0 0 0 0.0247 0 0 0 0 0 0.0221 0 0 0 0 0 0.018 0 0 0 0 0.0066 0.0935 -0.0272 0 0 0 0 0.0163 0 0 0 0 0 0.0171 0 0 0 0 0 0.018 0 0 0 0 5.96046e-06 38.4327 2.38419e-05 -9.28366 15.4093 2.48704 0 16.4938 0 1.32335e-05 -9.39151e-06 -4.26887e-07 
